<?xml version="1.0" encoding="utf-8"?>
<!-- Generator: Adobe Illustrator 24.2.3, SVG Export Plug-In . SVG Version: 6.00 Build 0)  -->
<svg version="1.1" id="Layer_1" xmlns="http://www.w3.org/2000/svg" xmlns:xlink="http://www.w3.org/1999/xlink" x="0px" y="0px"
	 viewBox="0 0 80 80" style="enable-background:new 0 0 80 80;" xml:space="preserve">
<style type="text/css">
	.st0{fill:#FFFFFF;}
</style>
<g>
	<path class="st0" d="M37.18,58.6c-12.88,0-23.36-10.48-23.36-23.36S24.3,11.87,37.18,11.87c12.88,0,23.36,10.48,23.36,23.36
		S50.07,58.6,37.18,58.6z M37.18,15.25c-11.02,0-19.99,8.97-19.99,19.99c0,11.02,8.97,19.99,19.99,19.99
		c11.02,0,19.99-8.97,19.99-19.99C57.17,24.21,48.2,15.25,37.18,15.25z"/>
</g>
<g>
	<path class="st0" d="M64.63,65c-0.43,0-0.86-0.16-1.19-0.49L51.3,52.36c-0.66-0.66-0.66-1.73,0-2.39c0.66-0.66,1.73-0.66,2.39,0
		l12.14,12.14c0.66,0.66,0.66,1.73,0,2.39C65.5,64.84,65.06,65,64.63,65z"/>
</g>
</svg>
