<?xml version="1.0" encoding="utf-8"?>
<!-- Generator: Adobe Illustrator 24.3.0, SVG Export Plug-In . SVG Version: 6.00 Build 0)  -->
<svg version="1.1" id="Layer_1" xmlns="http://www.w3.org/2000/svg" xmlns:xlink="http://www.w3.org/1999/xlink" x="0px" y="0px"
	 viewBox="0 0 40 40" style="enable-background:new 0 0 40 40;" xml:space="preserve">
<style type="text/css">
	.st0{fill:#FF0000;}
</style>
<path class="st0" d="M31.23,29.21H29.9v-3.42c0-0.34-0.28-0.62-0.62-0.62h-1.12v-9.62c0-4.29-3.5-7.79-7.79-7.79
	c-4.29,0-7.79,3.49-7.79,7.79v9.62h-1.12c-0.34,0-0.62,0.28-0.62,0.62v3.42H9.5c-0.34,0-0.62,0.28-0.62,0.62v2.56
	C8.89,32.72,9.16,33,9.5,33h21.73c0.34,0,0.62-0.28,0.62-0.62v-2.56C31.85,29.48,31.57,29.21,31.23,29.21z M13.82,15.54
	c0-3.61,2.94-6.55,6.55-6.55c3.61,0,6.55,2.94,6.55,6.55v9.62h-4.8v-5.26c0.82-0.57,1.31-1.51,1.31-2.52c0-1.69-1.38-3.07-3.07-3.07
	c-1.69,0-3.07,1.38-3.07,3.07c0,1.01,0.49,1.95,1.31,2.52v5.26h-4.8V15.54z M19.52,19.02c-0.61-0.32-0.98-0.94-0.98-1.62
	c0-1.01,0.82-1.83,1.83-1.83s1.83,0.82,1.83,1.83c0,0.68-0.38,1.31-0.98,1.62c-0.2,0.11-0.33,0.32-0.33,0.55v5.6h-1.04v-5.6
	C19.85,19.33,19.72,19.12,19.52,19.02z M30.61,31.76H10.12v-1.32h1.95v-1.24v-1.28V26.4h16.59v2.8h-0.01v1.24h1.96V31.76z"/>
</svg>
